<svg xmlns="http://www.w3.org/2000/svg" viewBox="0 0 512 512">
  <rect width="512" height="512" rx="112" fill="#081018"/>
  <circle cx="256" cy="256" r="158" fill="#40d9a9"/>
  <circle cx="256" cy="256" r="116" fill="#0c131b"/>
  <path fill="#40d9a9" d="M269 357h-30v-35c-32-5-56-24-66-53l38-16c8 22 25 34 51 34 24 0 39-10 39-26 0-17-15-22-48-29-43-9-72-24-72-66 0-34 23-58 58-65V66h30v34c28 5 49 21 61 48l-36 17c-8-18-22-27-43-27-21 0-35 10-35 25 0 16 14 22 47 29 44 10 74 25 74 67 0 36-26 61-68 66v32Z"/>
</svg>
